<svg viewBox="0 0 547.23 198.39"><path style="fill:#212322" d="M154.28 78.16h33.4v117.28h-33.4z"/><path d="M126.91 171.99c-5.29 0-7.72-2.93-7.72-9.53v-41.78c0-8.32 0-45.45-42.9-45.45-19.35 0-33.37 9.17-42.94 20.75h-1.94S31.3 77.53 29 75.23l-29 8v112.2h33.4V136.8c0-16.91 9.74-32.25 31.1-32.25s21.35 16.13 21.35 32.25v32.26c.2 9.76 2.44 29.32 27.52 29.32 19 0 29.39-8.37 29.39-8.37l-5-21.9a16 16 0 0 1-10.85 3.88z" style="fill:#212322"/><path d="M334.19 171.99c-5.29 0-7.72-2.93-7.72-9.53v-41.78c0-8.32 0-45.45-42.9-45.45-19.35 0-33.37 9.17-42.94 20.75h-1.94s-.1-18.45-2.41-20.79l-29.05 8v112.24h33.36V136.8c0-16.91 9.74-32.25 31.09-32.25s21.35 16.13 21.35 32.25v32.26c.21 9.76 2.45 29.32 27.53 29.32 19 0 29.39-8.37 29.39-8.37l-5-21.9a16 16 0 0 1-10.76 3.88z" style="fill:#212322"/><path d="M451.97 155.19s-8.54 13.88-32.23 13.88c-23.46 0-32-17.41-32-32.26 0-15.94 7.74-35.18 27.07-35.18 24.13 0 19.48 24.93 19.48 24.93l30.36-5.69c0-28.47-14.28-45.63-49.84-45.63-38.09 0-61.55 26.39-61.55 61.57s27.26 61.58 66.48 61.58c34.88 0 49.31-22.15 49.31-22.15z" style="fill:#212322"/><path d="M429.91 39.09V19.56A19.55 19.55 0 0 1 449.46 0h50.84a46.93 46.93 0 0 1 46.93 46.93v70.33h-39.09V39.09Z" style="fill:#1125a9"/></svg>