<svg xmlns="http://www.w3.org/2000/svg" viewBox="0 0 73.104 58.081">
  <path style="fill:#ff8700;fill-opacity:1;fill-rule:evenodd;stroke:none;stroke-width:.1" d="m175.895 211.9-4.006.02-26.84-46.489 30.846.519v-56.062h-63.049l15.872-26.454h47.177V49.925h26.454v33.509h15.431l15.432 26.454h-30.863V211.92h-26.454v-.02" transform="matrix(.35278 0 0 -.35278 -9.168 74.76)"/>
  <path style="fill:#000;fill-opacity:1;fill-rule:evenodd;stroke:none;stroke-width:.1" d="M162.668 211.77H85.139a59.151 59.151 0 0 1-59.151-59.151v-10.035c0-32.667 26.483-59.15 59.151-59.15h13.157l14.55 26.454H91.34a37.95 37.95 0 0 0-37.95 38.502v.001c.292 20.216 16.763 36.45 36.98 36.45h56.865zm-49.822-45.69h63.049l-32.186-56.192h-30.863l16.313 28.659H97.855l14.991 27.533" transform="matrix(.35278 0 0 -.35278 -9.168 74.76)"/>
  <path style="fill:#000;fill-opacity:1;fill-rule:nonzero;stroke:none;stroke-width:.1" d="M36.668 65.446h-3.353v3.499c0 .438-.067.723-.2.857-.134.133-.42.2-.857.2h-1.86c-.437 0-.728-.067-.874-.2-.146-.134-.219-.42-.219-.857V53.38c0-.438.073-.723.219-.857.146-.133.437-.2.875-.2h1.859c.437 0 .723.067.856.2.134.134.2.419.2.857v3.463h3.354V52.98c0-2.163-1.142-3.244-3.426-3.244h-3.864c-2.26 0-3.39 1.081-3.39 3.244v16.403c0 2.138 1.13 3.207 3.39 3.207h3.864c2.284 0 3.426-1.069 3.426-3.207v-3.937m6.488 7.144h4.046c2.26 0 3.39-1.069 3.39-3.207V52.98c0-2.138-1.13-3.208-3.39-3.208h-4.046c-2.284 0-3.426 1.07-3.426 3.208v16.403c0 2.138 1.142 3.207 3.426 3.207zm4.156-19.1v15.382c0 .438-.073.723-.219.857-.146.134-.438.2-.875.2h-2.114c-.437 0-.723-.066-.857-.2-.133-.134-.2-.419-.2-.857V53.49c0-.437.067-.723.2-.856.134-.134.42-.201.857-.201h2.114c.437 0 .729.067.875.201.146.133.22.42.22.856m15.053 19.1h3.025V49.772h-3.317l-4.811 16.476V49.772h-3.026V72.59H57.7l4.666-16v16m13.377-19.1v5.577c0 .438-.067.723-.2.857-.134.133-.42.2-.857.2h-2.698c-2.211 0-3.317 1.082-3.317 3.244v6.015c0 2.138 1.13 3.207 3.39 3.207h3.572c2.26 0 3.39-1.069 3.39-3.207v-3.354h-3.317v2.843c0 .438-.073.723-.218.857-.146.134-.438.2-.875.2h-1.531c-.437 0-.729-.066-.875-.2-.146-.134-.22-.419-.22-.857v-5.066c0-.438.074-.723.22-.857.146-.134.438-.2.875-.2h2.661c2.235 0 3.353-1.07 3.353-3.208v-6.56c0-2.139-1.142-3.21-3.426-3.21h-3.536c-2.26 0-3.39 1.071-3.39 3.21v3.352h3.317V53.49c0-.437.073-.723.22-.856.145-.134.436-.201.874-.201h1.53c.438 0 .724.067.857.201.134.133.201.42.201.856m15.819 19.1v-2.661h-3.827V49.772h-3.281v20.157h-3.827v2.66h10.935m5.358-13.595v-9.222h-3.28V72.59h7.472c2.26 0 3.39-1.069 3.39-3.207v-7.145c0-1.847-.814-2.904-2.442-3.17l3.609-9.296h-3.536l-3.426 9.222zm0 10.935v-8.31h3.208c.438 0 .729.066.875.2.146.134.219.419.219.857v6.196c0 .438-.073.723-.219.857-.146.134-.437.2-.875.2H96.92m18.627 2.661h3.317V52.98c0-2.138-1.143-3.208-3.427-3.208h-4.046c-2.284 0-3.426 1.07-3.426 3.208v19.61h3.317v-19.1c0-.437.073-.723.219-.856.145-.134.437-.201.874-.201h2.078c.462 0 .759.067.893.201.134.133.201.42.201.856v19.1m15.022-23.546h-4.85l-.882-1.764h4.85zm2.474 16.402h-3.354v3.499c0 .438-.066.723-.2.857-.134.133-.419.2-.857.2h-1.859c-.437 0-.729-.067-.874-.2-.146-.134-.219-.42-.219-.857V53.38c0-.438.073-.723.219-.857.145-.133.437-.2.874-.2h1.859c.438 0 .723.067.857.2.134.134.2.419.2.857v3.463h3.354V52.98c0-2.163-1.142-3.244-3.427-3.244h-3.863c-2.26 0-3.39 1.081-3.39 3.244v16.403c0 2.138 1.13 3.207 3.39 3.207h3.863c2.285 0 3.427-1.069 3.427-3.207v-3.937m6.488 7.144h4.046c2.26 0 3.39-1.069 3.39-3.207V52.98c0-2.138-1.13-3.208-3.39-3.208h-4.046c-2.284 0-3.426 1.07-3.426 3.208v16.403c0 2.138 1.142 3.207 3.426 3.207zm4.155-19.1v15.382c0 .438-.073.723-.218.857-.146.134-.438.2-.875.2h-2.114c-.438 0-.723-.066-.857-.2s-.2-.419-.2-.857V53.49c0-.437.066-.723.2-.856.134-.134.419-.201.857-.201h2.114c.437 0 .729.067.875.201.145.133.218.42.218.856zm.716 21.567h-4.85l-.882-1.764h4.85l.882 1.764m9.527-22.624h6.597v-2.661h-9.914V72.59h9.659v-2.661h-6.342v-7.035h5.249v-2.66h-5.249v-7.801m15.746 1.057v5.577c0 .438-.066.723-.2.857-.134.133-.419.2-.857.2h-2.697c-2.211 0-3.317 1.082-3.317 3.244v6.015c0 2.138 1.13 3.207 3.39 3.207h3.572c2.26 0 3.39-1.069 3.39-3.207v-3.354h-3.317v2.843c0 .438-.073.723-.219.857-.146.134-.437.2-.875.2h-1.53c-.438 0-.73-.066-.875-.2-.146-.134-.219-.419-.219-.857v-5.066c0-.438.073-.723.219-.857.145-.134.437-.2.875-.2h2.66c2.236 0 3.354-1.07 3.354-3.208v-6.56c0-2.139-1.142-3.21-3.427-3.21h-3.535c-2.26 0-3.39 1.071-3.39 3.21v3.352h3.317V53.49c0-.437.073-.723.219-.856.145-.134.437-.201.874-.201h1.531c.438 0 .723.067.857.201.134.133.2.42.2.856" transform="matrix(.35278 0 0 -.35278 -9.168 74.76)"/>
</svg>
