<svg id="e9kbbjk3ltvm1" xmlns="http://www.w3.org/2000/svg" xmlns:xlink="http://www.w3.org/1999/xlink" viewBox="0 0 300 300" shape-rendering="geometricPrecision" text-rendering="geometricPrecision" width="300" height="300"><style><![CDATA[#e9kbbjk3ltvm5_tr {animation: e9kbbjk3ltvm5_tr__tr 6000ms linear infinite normal forwards}@keyframes e9kbbjk3ltvm5_tr__tr { 0% {transform: translate(500.000473px,499.999512px) rotate(0deg)} 8.333333% {transform: translate(500.000473px,499.999512px) rotate(0deg);animation-timing-function: cubic-bezier(0.680000,-0.550000,0.265000,1.550000)} 33.333333% {transform: translate(500.000473px,499.999512px) rotate(-180deg);animation-timing-function: cubic-bezier(0.680000,-0.550000,0.265000,1.550000)} 58.333333% {transform: translate(500.000473px,499.999512px) rotate(-180deg);animation-timing-function: cubic-bezier(0.680000,-0.550000,0.265000,1.550000)} 83.333333% {transform: translate(500.000473px,499.999512px) rotate(-360deg)} 100% {transform: translate(500.000473px,499.999512px) rotate(-360deg)} }#e9kbbjk3ltvm10_tr {animation: e9kbbjk3ltvm10_tr__tr 6000ms linear infinite normal forwards}@keyframes e9kbbjk3ltvm10_tr__tr { 0% {transform: translate(500.000473px,499.999512px) rotate(0deg)} 6.666667% {transform: translate(500.000473px,499.999512px) rotate(0deg);animation-timing-function: cubic-bezier(0.680000,-0.550000,0.265000,1.550000)} 35% {transform: translate(500.000473px,499.999512px) rotate(360deg);animation-timing-function: cubic-bezier(0.680000,-0.550000,0.265000,1.550000)} 56.666667% {transform: translate(500.000473px,499.999512px) rotate(360deg);animation-timing-function: cubic-bezier(0.680000,-0.550000,0.265000,1.550000)} 85% {transform: translate(500.000473px,499.999512px) rotate(720deg)} 100% {transform: translate(500.000473px,499.999512px) rotate(720deg)} }#e9kbbjk3ltvm10_ts {animation: e9kbbjk3ltvm10_ts__ts 6000ms linear infinite normal forwards}@keyframes e9kbbjk3ltvm10_ts__ts { 0% {transform: scale(1,1);animation-timing-function: cubic-bezier(0.785000,0.135000,0.150000,0.860000)} 8.333333% {transform: scale(1.608495,1.608495);animation-timing-function: cubic-bezier(0.785000,0.135000,0.150000,0.860000)} 33.333333% {transform: scale(1.608495,1.608495);animation-timing-function: cubic-bezier(0.785000,0.135000,0.150000,0.860000)} 41.666667% {transform: scale(1,1);animation-timing-function: cubic-bezier(0.785000,0.135000,0.150000,0.860000)} 50% {transform: scale(1,1);animation-timing-function: cubic-bezier(0.785000,0.135000,0.150000,0.860000)} 58.333333% {transform: scale(1.608495,1.608495);animation-timing-function: cubic-bezier(0.785000,0.135000,0.150000,0.860000)} 83.333333% {transform: scale(1.608495,1.608495);animation-timing-function: cubic-bezier(0.785000,0.135000,0.150000,0.860000)} 91.666667% {transform: scale(1,1)} 100% {transform: scale(1,1)} }]]></style><defs><clipPath id="e9kbbjk3ltvm2"><path id="e9kbbjk3ltvm3" d="M0,1000L1000,1000L1000,0L0,0Z" fill="rgb(0,0,0)" stroke="none" stroke-width="1"/></clipPath></defs><g id="e9kbbjk3ltvm4" transform="matrix(-0.25000000000000 0 0 0.25000000000000 275.00011825499996 25.00012207000026)" clip-path="url(#e9kbbjk3ltvm2)"><g id="e9kbbjk3ltvm5_tr" transform="translate(500.000473,499.999512) rotate(0)"><g id="e9kbbjk3ltvm5" transform="translate(-500.000473,-499.999512)"><g id="e9kbbjk3ltvm6" transform="matrix(1 0 0 1 574.04600000000005 624.21100000000001)"><path id="e9kbbjk3ltvm7" d="M0,0L-126.330000,189.495000L-249.138000,-178.937000C-247.381000,-184.565000,-245.361000,-190.123000,-243.048000,-195.594000C-233.811000,-217.431000,-220.583000,-237.047000,-203.731000,-253.900000C-195.988000,-261.643000,-187.654000,-268.611000,-178.796000,-274.789000L-100.708000,-40.454000L-42.518000,-127.721000Z" fill="rgb(6,91,93)" stroke="none" stroke-width="1"/></g><g id="e9kbbjk3ltvm8" transform="matrix(1 0 0 1 669.00699999999995 571.38199999999995)"><path id="e9kbbjk3ltvm9" d="M0,0C-9.236000,21.837000,-22.464000,41.454000,-39.316000,58.306000C-47.075000,66.065000,-55.426000,73.045000,-64.303000,79.231000L-142.330000,-155.068000L-200.519000,-67.791000L-243.163000,-195.429000L-116.723000,-385.089000L6.068000,-16.540000C4.317000,-10.951000,2.298000,-5.434000,0,0" fill="rgb(122,187,158)" stroke="none" stroke-width="1"/></g></g></g><g id="e9kbbjk3ltvm10_tr" transform="translate(500.000473,499.999512) rotate(0)"><g id="e9kbbjk3ltvm10_ts" transform="scale(1,1)"><g id="e9kbbjk3ltvm10" transform="translate(-500.000473,-499.999512)"><path id="e9kbbjk3ltvm11" d="M0,0L38.100000,-57.151000C61.215000,-62.281000,82.893000,-71.231000,102.433000,-83.311000L144.543000,-48.593000L125.652000,-99.860000L124.853000,-99.295000C171.788000,-137.646000,201.756000,-195.979000,201.756000,-261.317000C201.756000,-301.535000,190.394000,-339.095000,170.718000,-370.980000L205.386000,-413.209000L154.121000,-394.197000L154.121000,-394.197000C142.581000,-408.206000,129.253000,-420.684000,114.489000,-431.289000L90.306000,-503.871000C186.294000,-465.175000,254.041000,-371.159000,254.041000,-261.317000C254.041000,-119.406000,140.966000,-3.909000,0,0" transform="matrix(1 0 0 1 507.38200002551855 761.31700000000001)" fill="rgb(0,47,65)" stroke="none" stroke-width="1"/><path id="e9kbbjk3ltvm12" d="M0,0L-42.115000,-34.722000L-23.149000,16.574000C-69.657000,54.932000,-99.305000,113.001000,-99.305000,177.994000C-99.305000,218.212000,-87.942000,255.772000,-68.267000,287.658000L-102.935000,329.887000L-51.669000,310.875000C-40.138000,324.874000,-26.819000,337.345000,-12.066000,347.946000L12.132000,420.543000C-83.849000,381.844000,-151.589000,287.832000,-151.589000,177.994000C-151.589000,36.084000,-38.514000,-79.414000,102.451000,-83.323000L64.351000,-26.172000C41.229000,-21.040000,19.545000,-12.086000,0,0" transform="matrix(1 0 0 1 390.16700001999948 322.00599999999940)" fill="rgb(0,47,65)" stroke="none" stroke-width="1"/></g></g></g></g></svg>